<mxfile host="65bd71144e">
    <diagram id="bEWay2_OsUx5ppK5K03S" name="PÃ¡gina-1">
        <mxGraphModel dx="2336" dy="828" grid="1" gridSize="10" guides="1" tooltips="1" connect="1" arrows="1" fold="1" page="1" pageScale="1" pageWidth="1169" pageHeight="827" math="0" shadow="0">
            <root>
                <mxCell id="0"/>
                <mxCell id="1" parent="0"/>
                <mxCell id="Iqdwk2R05dKkVCEFu7fA-3" value="Block" style="verticalAlign=top;align=left;spacingTop=8;spacingLeft=2;spacingRight=12;shape=cube;size=10;direction=south;fontStyle=4;html=1;" parent="1" vertex="1">
                    <mxGeometry x="-1125" y="20" width="810" height="660" as="geometry"/>
                </mxCell>
                <mxCell id="Iqdwk2R05dKkVCEFu7fA-4" value="" style="rounded=1;whiteSpace=wrap;html=1;" parent="1" vertex="1">
                    <mxGeometry x="-1100" y="50" width="770" height="80" as="geometry"/>
                </mxCell>
                <mxCell id="Iqdwk2R05dKkVCEFu7fA-5" value="" style="rounded=1;whiteSpace=wrap;html=1;" parent="1" vertex="1">
                    <mxGeometry x="-1100" y="580" width="760" height="80" as="geometry"/>
                </mxCell>
                <mxCell id="Iqdwk2R05dKkVCEFu7fA-9" value="" style="html=1;shadow=0;dashed=0;align=center;verticalAlign=middle;shape=mxgraph.arrows2.arrow;dy=0.6;dx=40;flipH=1;notch=0;" parent="1" vertex="1">
                    <mxGeometry x="-1080" y="280" width="100" height="70" as="geometry"/>
                </mxCell>
                <mxCell id="Iqdwk2R05dKkVCEFu7fA-10" value="" style="html=1;shadow=0;dashed=0;align=center;verticalAlign=middle;shape=mxgraph.arrows2.arrow;dy=0.6;dx=40;notch=0;" parent="1" vertex="1">
                    <mxGeometry x="-460" y="280" width="100" height="70" as="geometry"/>
                </mxCell>
                <mxCell id="Iqdwk2R05dKkVCEFu7fA-11" value="MENUS" style="rounded=1;whiteSpace=wrap;html=1;" parent="1" vertex="1">
                    <mxGeometry x="-1090" y="490" width="120" height="60" as="geometry"/>
                </mxCell>
                <mxCell id="Iqdwk2R05dKkVCEFu7fA-12" value="" style="rounded=1;whiteSpace=wrap;html=1;" parent="1" vertex="1">
                    <mxGeometry x="-940" y="490" width="120" height="60" as="geometry"/>
                </mxCell>
                <mxCell id="Iqdwk2R05dKkVCEFu7fA-13" value="" style="rounded=1;whiteSpace=wrap;html=1;" parent="1" vertex="1">
                    <mxGeometry x="-780" y="490" width="120" height="60" as="geometry"/>
                </mxCell>
                <mxCell id="Iqdwk2R05dKkVCEFu7fA-14" value="" style="rounded=1;whiteSpace=wrap;html=1;" parent="1" vertex="1">
                    <mxGeometry x="-630" y="490" width="120" height="60" as="geometry"/>
                </mxCell>
                <mxCell id="Iqdwk2R05dKkVCEFu7fA-15" value="" style="rounded=1;whiteSpace=wrap;html=1;" parent="1" vertex="1">
                    <mxGeometry x="-480" y="490" width="120" height="60" as="geometry"/>
                </mxCell>
            </root>
        </mxGraphModel>
    </diagram>
</mxfile>